<mxfile>
    <diagram id="FexUDPZeQcoHBGsE7B4A" name="arquitectura">
        <mxGraphModel dx="724" dy="562" grid="1" gridSize="10" guides="1" tooltips="1" connect="1" arrows="1" fold="1" page="1" pageScale="1" pageWidth="827" pageHeight="1169" math="0" shadow="0">
            <root>
                <mxCell id="0"/>
                <mxCell id="1" parent="0"/>
                <mxCell id="4" value="Dispositivo_usuario (Navegador)" style="verticalAlign=top;align=left;spacingTop=8;spacingLeft=2;spacingRight=12;shape=cube;size=10;direction=south;fontStyle=4;html=1;" parent="1" vertex="1">
                    <mxGeometry x="120" y="120" width="240" height="220" as="geometry"/>
                </mxCell>
                <mxCell id="6" value="Crome" style="shape=module;align=left;spacingLeft=20;align=center;verticalAlign=top;" parent="1" vertex="1">
                    <mxGeometry x="150" y="200" width="140" height="50" as="geometry"/>
                </mxCell>
                <mxCell id="22" style="edgeStyle=orthogonalEdgeStyle;rounded=0;orthogonalLoop=1;jettySize=auto;html=1;entryX=0;entryY=0;entryDx=220;entryDy=125;entryPerimeter=0;dashed=1;" parent="1" source="7" target="4" edge="1">
                    <mxGeometry relative="1" as="geometry"/>
                </mxCell>
                <mxCell id="7" value="Servidor web" style="verticalAlign=top;align=left;spacingTop=8;spacingLeft=2;spacingRight=12;shape=cube;size=10;direction=south;fontStyle=4;html=1;" parent="1" vertex="1">
                    <mxGeometry x="550" y="110" width="810" height="450" as="geometry"/>
                </mxCell>
                <mxCell id="8" value="framework Angular" style="shape=module;align=left;spacingLeft=20;align=center;verticalAlign=top;" parent="1" vertex="1">
                    <mxGeometry x="570" y="180" width="200" height="290" as="geometry"/>
                </mxCell>
                <mxCell id="10" value="Vista(HTML+Css)" style="shape=module;align=left;spacingLeft=20;align=center;verticalAlign=top;" parent="1" vertex="1">
                    <mxGeometry x="620" y="220" width="120" height="50" as="geometry"/>
                </mxCell>
                <mxCell id="14" style="edgeStyle=orthogonalEdgeStyle;rounded=0;orthogonalLoop=1;jettySize=auto;html=1;dashed=1;" parent="1" source="12" target="10" edge="1">
                    <mxGeometry relative="1" as="geometry"/>
                </mxCell>
                <mxCell id="15" style="edgeStyle=orthogonalEdgeStyle;rounded=0;orthogonalLoop=1;jettySize=auto;html=1;dashed=1;" parent="1" source="12" target="13" edge="1">
                    <mxGeometry relative="1" as="geometry"/>
                </mxCell>
                <mxCell id="12" value="Controlador (JS)" style="shape=module;align=left;spacingLeft=20;align=center;verticalAlign=top;" parent="1" vertex="1">
                    <mxGeometry x="620" y="310" width="120" height="50" as="geometry"/>
                </mxCell>
                <mxCell id="23" style="edgeStyle=orthogonalEdgeStyle;rounded=0;orthogonalLoop=1;jettySize=auto;html=1;entryX=1;entryY=0.5;entryDx=0;entryDy=0;dashed=1;" parent="1" source="13" target="8" edge="1">
                    <mxGeometry relative="1" as="geometry">
                        <Array as="points">
                            <mxPoint x="680" y="460"/>
                            <mxPoint x="750" y="460"/>
                            <mxPoint x="750" y="325"/>
                        </Array>
                    </mxGeometry>
                </mxCell>
                <mxCell id="13" value="Modelo" style="shape=module;align=left;spacingLeft=20;align=center;verticalAlign=top;" parent="1" vertex="1">
                    <mxGeometry x="620" y="400" width="120" height="50" as="geometry"/>
                </mxCell>
                <mxCell id="16" value="" style="shape=folder;fontStyle=1;spacingTop=10;tabWidth=70;tabHeight=20;tabPosition=left;html=1;" parent="1" vertex="1">
                    <mxGeometry x="890" y="140" width="430" height="400" as="geometry"/>
                </mxCell>
                <mxCell id="17" value="Back-end" style="text;html=1;strokeColor=none;fillColor=none;align=center;verticalAlign=middle;whiteSpace=wrap;rounded=0;" parent="1" vertex="1">
                    <mxGeometry x="890" y="140" width="80" height="20" as="geometry"/>
                </mxCell>
                <mxCell id="28" style="edgeStyle=orthogonalEdgeStyle;rounded=0;orthogonalLoop=1;jettySize=auto;html=1;entryX=0.5;entryY=1;entryDx=0;entryDy=0;endArrow=none;endFill=0;" edge="1" parent="1" source="29" target="21">
                    <mxGeometry relative="1" as="geometry"/>
                </mxCell>
                <mxCell id="18" value="framework spring-bot" style="shape=module;align=left;spacingLeft=20;align=center;verticalAlign=top;" parent="1" vertex="1">
                    <mxGeometry x="920" y="180" width="210" height="340" as="geometry"/>
                </mxCell>
                <mxCell id="27" style="edgeStyle=orthogonalEdgeStyle;rounded=0;orthogonalLoop=1;jettySize=auto;html=1;endArrow=none;endFill=0;" edge="1" parent="1" source="19" target="20">
                    <mxGeometry relative="1" as="geometry"/>
                </mxCell>
                <mxCell id="19" value="&lt;&lt;logica negocio&gt;&gt;&#10;servicio web &#10;Java&#10;" style="shape=module;align=left;spacingLeft=20;align=center;verticalAlign=top;" parent="1" vertex="1">
                    <mxGeometry x="960" y="280" width="140" height="60" as="geometry"/>
                </mxCell>
                <mxCell id="20" value="&lt;&lt;lAcceso a datos&gt;&gt;&#10;servicio web &#10;Java&#10;" style="shape=module;align=left;spacingLeft=20;align=center;verticalAlign=top;" parent="1" vertex="1">
                    <mxGeometry x="955" y="400" width="150" height="60" as="geometry"/>
                </mxCell>
                <mxCell id="21" value="&lt;&lt;Base de datos&gt;&gt;&#10;MariaDB" style="shape=module;align=left;spacingLeft=20;align=center;verticalAlign=top;" parent="1" vertex="1">
                    <mxGeometry x="1150" y="270" width="150" height="60" as="geometry"/>
                </mxCell>
                <mxCell id="24" style="edgeStyle=orthogonalEdgeStyle;rounded=0;orthogonalLoop=1;jettySize=auto;html=1;entryX=1;entryY=0.5;entryDx=0;entryDy=0;entryPerimeter=0;endArrow=none;endFill=0;" edge="1" parent="1" source="8" target="25">
                    <mxGeometry relative="1" as="geometry">
                        <mxPoint x="870" y="360" as="targetPoint"/>
                    </mxGeometry>
                </mxCell>
                <mxCell id="25" value="" style="shape=providedRequiredInterface;html=1;verticalLabelPosition=bottom;rotation=-180;" vertex="1" parent="1">
                    <mxGeometry x="910" y="340" width="20" height="20" as="geometry"/>
                </mxCell>
                <mxCell id="29" value="" style="rounded=0;whiteSpace=wrap;html=1;" vertex="1" parent="1">
                    <mxGeometry x="1215" y="330" width="20" height="10" as="geometry"/>
                </mxCell>
                <mxCell id="30" style="edgeStyle=orthogonalEdgeStyle;rounded=0;orthogonalLoop=1;jettySize=auto;html=1;entryX=0.5;entryY=1;entryDx=0;entryDy=0;endArrow=none;endFill=0;" edge="1" parent="1" source="18" target="29">
                    <mxGeometry relative="1" as="geometry">
                        <mxPoint x="1130" y="350.0000000000001" as="sourcePoint"/>
                        <mxPoint x="1225" y="329.9999999999999" as="targetPoint"/>
                    </mxGeometry>
                </mxCell>
            </root>
        </mxGraphModel>
    </diagram>
</mxfile>